<svg width="28" height="28" viewBox="0 0 28 28" fill="none" xmlns="http://www.w3.org/2000/svg">
<g id="cil:flower">
<path id="Vector" d="M22.3125 16.625C20.5693 16.6267 18.8624 17.1236 17.3908 18.0579C15.9191 18.9922 14.7432 20.3255 14 21.9023C13.2568 20.3255 12.0809 18.9922 10.6092 18.0579C9.13757 17.1236 7.43071 16.6267 5.6875 16.625H0.875V17.5C0.875 22.566 4.99647 26.6875 10.0625 26.6875H17.9375C23.0035 26.6875 27.125 22.566 27.125 17.5V16.625H22.3125ZM10.0625 24.9375C6.25729 24.9375 3.11041 22.0654 2.67619 18.375H5.6875C9.49271 18.375 12.6396 21.2471 13.0738 24.9375H10.0625ZM17.9375 24.9375H14.9262C15.3604 21.2471 18.5073 18.375 22.3125 18.375H25.3238C24.8896 22.0654 21.7427 24.9375 17.9375 24.9375Z" fill="white"/>
<path id="Vector_2" d="M9.2546 14.3704C9.4201 15.3544 9.88953 16.2619 10.597 16.9655L10.8533 17.2217H11.2158C12.2136 17.2245 13.1872 16.9148 14 16.336C14.8128 16.9149 15.7864 17.2247 16.7843 17.222H17.1467L17.403 16.9657C18.1105 16.2621 18.5799 15.3546 18.7454 14.3706C19.7294 14.2051 20.6369 13.7357 21.3405 13.0282L21.5967 12.7719V12.4095C21.5996 11.4116 21.2898 10.4379 20.711 9.625C21.2899 8.81222 21.5997 7.83858 21.597 6.84075V6.47834L21.3407 6.22202C20.6371 5.51453 19.7296 5.0451 18.7456 4.8796C18.5801 3.89561 18.1107 2.98814 17.4032 2.28452L17.1469 2.02825H16.7845C15.7866 2.02543 14.8129 2.33516 14 2.91397C13.1872 2.33512 12.2136 2.02532 11.2158 2.02803H10.8533L10.597 2.2843C9.88953 2.98792 9.4201 3.8954 9.2546 4.87938C8.27061 5.04488 7.36314 5.51431 6.65952 6.2218L6.40325 6.47812V6.84053C6.40043 7.83841 6.71016 8.81213 7.28897 9.625C6.71012 10.4378 6.40032 11.4114 6.40303 12.4093V12.7717L6.6593 13.028C7.36297 13.7355 8.27054 14.205 9.2546 14.3704ZM9.05029 9.00632C8.56501 8.52396 8.25671 7.89194 8.17529 7.21257C8.71323 6.78959 9.37818 6.56054 10.0625 6.5625H10.9375V5.6875C10.9355 5.00326 11.1645 4.33837 11.5874 3.80045C12.2668 3.88187 12.8988 4.19017 13.3812 4.67545L14 5.29375L14.6187 4.67507C15.101 4.18979 15.7331 3.88149 16.4124 3.80007C16.8355 4.33807 17.0645 5.00311 17.0625 5.6875V6.5625H17.9375C18.6217 6.56053 19.2866 6.78952 19.8245 7.21241C19.7431 7.89178 19.4348 8.52379 18.9495 9.00616L18.3313 9.625L18.95 10.2437C19.4353 10.7261 19.7436 11.3581 19.825 12.0375C19.287 12.4605 18.6219 12.6895 17.9375 12.6875H17.0625V13.5625C17.0645 14.2467 16.8355 14.9116 16.4126 15.4495C15.7332 15.3681 15.1012 15.0598 14.6188 14.5745L14 13.9563L13.3813 14.5748C12.8989 15.06 12.2669 15.3684 11.5875 15.4498C11.1645 14.9118 10.9355 14.2468 10.9375 13.5625V12.6875H10.0625C9.37826 12.6895 8.71337 12.4605 8.17545 12.0376C8.25687 11.3582 8.56517 10.7262 9.05045 10.2438L9.66875 9.625L9.05029 9.00632Z" fill="white"/>
</g>
</svg>
