<svg width="134" height="133" viewBox="0 0 134 133" fill="none" xmlns="http://www.w3.org/2000/svg">
<path id="Vector" d="M133.522 66.7629C133.53 75.946 131.606 85.0294 127.874 93.4311C124.141 101.833 118.682 109.367 111.847 115.552C109.946 117.274 107.947 118.886 105.86 120.382C103.182 122.301 100.363 124.017 97.4266 125.517H97.3958C96.7699 125.844 96.1338 126.154 95.4925 126.455C95.2001 126.598 94.9128 126.73 94.6153 126.863C92.7582 127.708 90.8532 128.467 88.9003 129.14C87.3613 129.649 85.7813 130.159 84.1858 130.577C74.9827 133.008 65.3627 133.458 55.9703 131.896C54.8571 131.713 53.7593 131.504 52.6666 131.265L51.7431 131.056C48.9557 130.409 46.2138 129.582 43.535 128.58C41.9789 127.999 40.4535 127.362 38.959 126.669C38.3793 126.399 37.7996 126.124 37.2301 125.838C36.8402 125.645 36.4555 125.446 36.0707 125.247C25.6325 119.803 16.8387 111.702 10.5899 101.772C4.34105 91.8427 0.86171 80.4422 0.508136 68.7382C0.154563 57.0341 2.93947 45.447 8.57767 35.1634C14.2159 24.8798 22.5048 16.2691 32.5956 10.2132C42.6864 4.15723 54.2166 0.873616 66.0054 0.698548C77.7943 0.523481 89.4181 3.46327 99.6868 9.21686C109.955 14.9705 118.5 23.3311 124.445 33.4427C130.39 43.5543 133.523 55.0536 133.522 66.7629Z" fill="url(#paint0_linear_1_199)"/>
<defs>
<linearGradient id="paint0_linear_1_199" x1="67.273" y1="7.86511" x2="65.029" y2="138.076" gradientUnits="userSpaceOnUse">
<stop stop-color="white" stop-opacity="0"/>
<stop offset="1" stop-color="#64B5F6" stop-opacity="0.6"/>
</linearGradient>
</defs>
</svg>
